<svg width="37" height="33" viewBox="0 0 37 33" fill="none" xmlns="http://www.w3.org/2000/svg">
<path d="M4.82609 4.71429V0H8.04348V4.71429H12.8696V7.85714H8.04348V12.5714H4.82609V7.85714H0V4.71429H4.82609ZM9.65217 14.1429V9.42857H14.4783V4.71429H25.7391L28.683 7.85714H33.7826C35.5522 7.85714 37 9.27143 37 11V29.8571C37 31.5857 35.5522 33 33.7826 33H8.04348C6.27391 33 4.82609 31.5857 4.82609 29.8571V14.1429H9.65217ZM20.913 28.2857C25.353 28.2857 28.9565 24.7657 28.9565 20.4286C28.9565 16.0914 25.353 12.5714 20.913 12.5714C16.473 12.5714 12.8696 16.0914 12.8696 20.4286C12.8696 24.7657 16.473 28.2857 20.913 28.2857ZM15.7652 20.4286C15.7652 23.21 18.0657 25.4571 20.913 25.4571C23.7604 25.4571 26.0609 23.21 26.0609 20.4286C26.0609 17.6471 23.7604 15.4 20.913 15.4C18.0657 15.4 15.7652 17.6471 15.7652 20.4286Z" fill="white"/>
</svg>
