<svg width="171" height="55" viewBox="0 0 171 55" fill="none" xmlns="http://www.w3.org/2000/svg">
<path d="M0.88 10.752V0.831997H37.36V10.752H33.52V45.056H37.424L37.36 54.976H0.88V45.056H4.72V10.752H0.88ZM39.6 54.976V0.831997H52.4V19.968H58.16V30.848H52.4V54.976H39.6ZM6.96 27.904C13.552 27.904 19.12 38.912 19.12 51.776C19.12 38.912 24.688 27.904 31.28 27.904C24.816 27.904 19.376 17.472 19.12 4.992C18.864 17.472 13.36 27.904 6.96 27.904ZM94.62 22.592V32.512H72.284V45.056C81.564 45.056 89.564 44.608 96.86 43.136V54.976H59.484V0.831997H95.26V10.752H72.284V22.592H94.62ZM99.804 54.976V0.831997H112.604V54.976H99.804ZM158.088 0.831997H170.888V21.824H117.768V0.831997H130.568V4.16H158.088V0.831997ZM144.328 5.12C144.328 10.176 136.072 12.928 120.072 13.056C136.072 13.184 144.328 15.808 144.328 20.864C144.328 15.808 152.52 13.12 168.52 12.992C152.52 12.864 144.328 10.176 144.328 5.12ZM117.768 33.6V23.68H170.888V33.6H151.048V35.84H170.888V54.976H117.768V35.84H137.608V33.6H117.768ZM144.328 54.336C144.328 48 152.52 45.504 168.52 45.376C152.52 45.248 144.328 42.816 144.328 36.48C144.328 42.816 136.072 45.248 120.072 45.376C136.072 45.504 144.328 48 144.328 54.336Z" fill="url(#paint0_linear_178_689)"/>
<defs>
<linearGradient id="paint0_linear_178_689" x1="-2" y1="-11.4247" x2="183.093" y2="40.6698" gradientUnits="userSpaceOnUse">
<stop stop-color="#FFCD50"/>
<stop offset="1" stop-color="#FF2824"/>
</linearGradient>
</defs>
</svg>
