<svg width="42" height="42" viewBox="0 0 42 42" fill="none" xmlns="http://www.w3.org/2000/svg">
<path d="M21 0.5C32.3159 0.5 41.5 9.68414 41.5 21C41.5 32.3159 32.3159 41.5 21 41.5C9.68414 41.5 0.5 32.3159 0.5 21C0.5 9.68414 9.68414 0.5 21 0.5ZM21 26.7998C16.011 26.7998 11.4303 28.5212 7.79785 31.3584L7.39258 31.6748L7.72168 32.0713C11.4214 36.5281 16.6112 38.2998 21 38.2998C25.3888 38.2998 30.5786 36.5281 34.2783 32.0713L34.6074 31.6748L34.2021 31.3584C30.5697 28.5212 25.989 26.7998 21 26.7998ZM21 7.90039C16.6709 7.90039 13.1504 11.4209 13.1504 15.75C13.1504 20.0791 16.6709 23.5996 21 23.5996C25.3291 23.5996 28.8496 20.0791 28.8496 15.75C28.8496 11.4209 25.3291 7.90039 21 7.90039Z" fill="#A7A7A7" stroke="white"/>
</svg>
