<svg width="113" height="113" viewBox="0 0 113 113" fill="none" xmlns="http://www.w3.org/2000/svg">
<path d="M56.5 0C25.312 0 0 25.312 0 56.5C0 87.688 25.312 113 56.5 113C87.688 113 113 87.688 113 56.5C113 25.312 87.688 0 56.5 0ZM56.5 22.6C67.4045 22.6 76.275 31.4705 76.275 42.375C76.275 53.2795 67.4045 62.15 56.5 62.15C45.5955 62.15 36.725 53.2795 36.725 42.375C36.725 31.4705 45.5955 22.6 56.5 22.6ZM56.5 101.7C45.0305 101.7 31.4705 97.067 21.809 85.428C31.3575 77.97 43.392 73.45 56.5 73.45C69.608 73.45 81.6425 77.97 91.191 85.428C81.5295 97.067 67.9695 101.7 56.5 101.7Z" fill="#DDDDDD"/>
</svg>
